<svg xmlns="http://www.w3.org/2000/svg" viewBox="0 0 300.26 80.81"><g id="Layer_2" data-name="Layer 2"><g id="Layer_1-2" data-name="Layer 1"><path d="M133.5,41.61a14,14,0,0,1,4.94,8.28h-7.81A7.16,7.16,0,0,0,128,46.57a7.45,7.45,0,0,0-4.25-1.21,6.5,6.5,0,0,0-5.22,2.38,9.57,9.57,0,0,0-2,6.34,9.46,9.46,0,0,0,2,6.31,6.51,6.51,0,0,0,5.22,2.35,7.44,7.44,0,0,0,4.25-1.2,7.21,7.21,0,0,0,2.65-3.28h7.81a14.14,14.14,0,0,1-4.94,8.26,14.89,14.89,0,0,1-9.64,3.08,15.16,15.16,0,0,1-7.8-2,13.27,13.27,0,0,1-5.2-5.5A17.31,17.31,0,0,1,109,54.08,17.32,17.32,0,0,1,110.86,46a13.27,13.27,0,0,1,5.2-5.5,15.26,15.26,0,0,1,7.8-2A14.94,14.94,0,0,1,133.5,41.61Z" fill="#fff"/><path d="M156.94,46.23a7.52,7.52,0,0,1,2.93,3.4V45.28h7.34V69.34h-7.34V65a7.52,7.52,0,0,1-2.93,3.4,8.64,8.64,0,0,1-4.74,1.25,9.76,9.76,0,0,1-5.33-1.48,10.29,10.29,0,0,1-3.71-4.29,15,15,0,0,1-1.36-6.56,15,15,0,0,1,1.36-6.58,10.29,10.29,0,0,1,3.71-4.27A9.76,9.76,0,0,1,152.2,45,8.64,8.64,0,0,1,156.94,46.23ZM150.75,53a6.08,6.08,0,0,0-1.44,4.31,6.08,6.08,0,0,0,1.44,4.31,5,5,0,0,0,3.82,1.56,5,5,0,0,0,3.82-1.6,6,6,0,0,0,1.48-4.27A6,6,0,0,0,158.39,53a5,5,0,0,0-3.82-1.57A5,5,0,0,0,150.75,53Z" fill="#fff"/><path d="M186.64,63v6.34h-3.32a9.54,9.54,0,0,1-6.58-2.09c-1.56-1.39-2.35-3.7-2.35-6.92V51.49h-3.23V45.28h3.23V39.37h7.38v5.91h4.83v6.21h-4.83v9a2.68,2.68,0,0,0,.58,2,2.75,2.75,0,0,0,2,.56Z" fill="#fff"/><path d="M205.14,46.23a7.54,7.54,0,0,1,2.94,3.4V45.28h7.33V69.34h-7.33V65a7.54,7.54,0,0,1-2.94,3.4,8.64,8.64,0,0,1-4.74,1.25,9.79,9.79,0,0,1-5.33-1.48,10.27,10.27,0,0,1-3.7-4.29A14.84,14.84,0,0,1,190,57.31a14.81,14.81,0,0,1,1.36-6.58,10.27,10.27,0,0,1,3.7-4.27A9.79,9.79,0,0,1,200.4,45,8.64,8.64,0,0,1,205.14,46.23ZM199,53a6,6,0,0,0-1.45,4.31A6,6,0,0,0,199,61.62a4.94,4.94,0,0,0,3.81,1.56,5,5,0,0,0,3.82-1.6,6,6,0,0,0,1.49-4.27A6,6,0,0,0,206.59,53a5,5,0,0,0-3.82-1.57A4.93,4.93,0,0,0,199,53Z" fill="#fff"/><path d="M228.35,37.43V69.34H221V37.43Z" fill="#fff"/><path d="M240,45.28,245.74,60l5.39-14.75h8.15l-15,35.53h-8.11l5.65-12.37L231.72,45.28Z" fill="#fff"/><path d="M278.28,47.26a9.94,9.94,0,0,1,3.43,6h-6.9A3.84,3.84,0,0,0,273.45,51a4.12,4.12,0,0,0-2.65-.84,2.89,2.89,0,0,0-1.9.54,1.89,1.89,0,0,0-.65,1.53,1.79,1.79,0,0,0,1.19,1.68A18.17,18.17,0,0,0,273.17,55a37.86,37.86,0,0,1,4.53,1.32,7.45,7.45,0,0,1,3.06,2.18,6,6,0,0,1,1.29,4,6.23,6.23,0,0,1-1.12,3.67,7.45,7.45,0,0,1-3.23,2.5,12.72,12.72,0,0,1-5,.9,12.89,12.89,0,0,1-7.81-2.15,9.1,9.1,0,0,1-3.58-6.17h7.12a3.16,3.16,0,0,0,1.31,2.37,4.94,4.94,0,0,0,3,.82,2.72,2.72,0,0,0,1.89-.58,2,2,0,0,0,.65-1.53,1.85,1.85,0,0,0-1.19-1.79,21.38,21.38,0,0,0-3.86-1.14,31.79,31.79,0,0,1-4.39-1.21,7.27,7.27,0,0,1-3-2.09,5.86,5.86,0,0,1-1.25-4A6.45,6.45,0,0,1,264,47,10.74,10.74,0,0,1,271,45,11.06,11.06,0,0,1,278.28,47.26Z" fill="#fff"/><path d="M300.26,63v6.34h-3.32a9.54,9.54,0,0,1-6.58-2.09Q288,65.16,288,60.33V51.49h-3.23V45.28H288V39.37h7.37v5.91h4.83v6.21h-4.83v9a2.68,2.68,0,0,0,.59,2,2.73,2.73,0,0,0,2,.56Z" fill="#fff"/><path d="M112.1,25.78v6.67H110V15.89h5.26a6,6,0,0,1,4.25,1.33,4.76,4.76,0,0,1,1.41,3.63,4.6,4.6,0,0,1-1.46,3.63,6.09,6.09,0,0,1-4.2,1.3Zm5.74-2.6a3.09,3.09,0,0,0,.86-2.33,3.1,3.1,0,0,0-.86-2.36,4,4,0,0,0-2.81-.81H112.1V24H115A4,4,0,0,0,117.84,23.18Z" fill="#fff"/><path d="M129,20.09a5.49,5.49,0,0,1,2.92-.74v2.32h-.66a4.56,4.56,0,0,0-3,.93,3.71,3.71,0,0,0-1.15,3.07v6.78H125V19.56h2.14v2.61A4.69,4.69,0,0,1,129,20.09Z" fill="#fff"/><path d="M144.78,20.19a5.72,5.72,0,0,1,2.3,2.3,7.14,7.14,0,0,1,.84,3.53,7.07,7.07,0,0,1-.84,3.51,5.7,5.7,0,0,1-2.3,2.29,7.31,7.31,0,0,1-6.65,0,5.78,5.78,0,0,1-2.31-2.29A7.07,7.07,0,0,1,135,26a7.15,7.15,0,0,1,.85-3.53,5.81,5.81,0,0,1,2.31-2.3,7.31,7.31,0,0,1,6.65,0Zm-5.45,1.6a3.82,3.82,0,0,0-1.57,1.59,5.31,5.31,0,0,0-.6,2.64,5.31,5.31,0,0,0,.6,2.62,3.85,3.85,0,0,0,1.57,1.58,4.6,4.6,0,0,0,4.25,0,3.88,3.88,0,0,0,1.58-1.58,5.31,5.31,0,0,0,.59-2.62,5.31,5.31,0,0,0-.59-2.64,3.84,3.84,0,0,0-1.58-1.59,4.6,4.6,0,0,0-4.25,0Z" fill="#fff"/><path d="M150,36.68h.89a1.72,1.72,0,0,0,1.23-.37,1.79,1.79,0,0,0,.39-1.3V19.56h2.16V35.08q0,3.48-3.52,3.48H150Zm2.52-19.95a1.31,1.31,0,0,1,0-1.9,1.53,1.53,0,0,1,1.07-.37,1.43,1.43,0,0,1,1,.37,1.33,1.33,0,0,1,0,1.9,1.47,1.47,0,0,1-1,.36A1.57,1.57,0,0,1,152.47,16.73Z" fill="#fff"/><path d="M185.7,20.71a5.57,5.57,0,0,1,2,3.52h-2.25a3.33,3.33,0,0,0-1.28-2.17,4.5,4.5,0,0,0-4.65-.27A3.66,3.66,0,0,0,178,23.38a5.54,5.54,0,0,0-.57,2.64,5.54,5.54,0,0,0,.57,2.64,3.77,3.77,0,0,0,1.49,1.59,4.18,4.18,0,0,0,2.05.51,4.11,4.11,0,0,0,2.6-.8,3.38,3.38,0,0,0,1.28-2.18h2.25a5.49,5.49,0,0,1-2,3.53,6.33,6.33,0,0,1-4.09,1.31,6.68,6.68,0,0,1-3.29-.8,5.68,5.68,0,0,1-2.24-2.29,7.28,7.28,0,0,1-.81-3.51,7.36,7.36,0,0,1,.81-3.53,5.7,5.7,0,0,1,2.24-2.3,6.68,6.68,0,0,1,3.29-.8A6.28,6.28,0,0,1,185.7,20.71Z" fill="#fff"/><path d="M198.25,30.57v1.88h-1.6a4.07,4.07,0,0,1-2.94-.94,4.22,4.22,0,0,1-1-3.14v-7H190.8V19.56h1.93V16.34h2.16v3.22h3.34v1.85h-3.34v7a2.42,2.42,0,0,0,.46,1.71,2.24,2.24,0,0,0,1.59.45Z" fill="#fff"/><path d="M171.5,25.29a6,6,0,0,0-.74-3,5.64,5.64,0,0,0-2.14-2.14,6.51,6.51,0,0,0-3.28-.8,6.64,6.64,0,0,0-3.28.8,5.67,5.67,0,0,0-2.25,2.3A7.36,7.36,0,0,0,159,26a7.28,7.28,0,0,0,.81,3.51,5.64,5.64,0,0,0,2.25,2.29,6.64,6.64,0,0,0,3.28.8,7,7,0,0,0,2.92-.59,5.35,5.35,0,0,0,3.14-4h-2.27a3.27,3.27,0,0,1-1.28,2.1,4.19,4.19,0,0,1-2.6.79,4.13,4.13,0,0,1-2.9-1.1,4.55,4.55,0,0,1-1.26-3.32H171.4A5.67,5.67,0,0,0,171.5,25.29Zm-9.12-3.07a4.28,4.28,0,0,1,3-1.09,4.57,4.57,0,0,1,2,.47A3.51,3.51,0,0,1,168.87,23a4,4,0,0,1,.46,1.65h-8.16A4.12,4.12,0,0,1,162.38,22.22Z" fill="#fff"/><path d="M77.69,48.46H1.06a39.38,39.38,0,0,0,76.63,0Z" fill="#fff"/><path d="M0,42.4v-3a39.37,39.37,0,0,1,78.74,0v3H60.57v-3a21.2,21.2,0,0,0-42.18-3h6.14a15.14,15.14,0,0,1,30,3v3h-6v-3a9.09,9.09,0,0,0-18.18,0v3H12.11v-3a27.26,27.26,0,0,1,54.35-3h6.09a33.31,33.31,0,0,0-66.49,3v3Z" fill="#fff"/></g></g></svg>