<?xml version="1.0" encoding="UTF-8" standalone="no"?>
<svg
   xmlns:dc="http://purl.org/dc/elements/1.1/"
   xmlns:cc="http://creativecommons.org/ns#"
   xmlns:rdf="http://www.w3.org/1999/02/22-rdf-syntax-ns#"
   xmlns:svg="http://www.w3.org/2000/svg"
   xmlns="http://www.w3.org/2000/svg"
   xmlns:sodipodi="http://sodipodi.sourceforge.net/DTD/sodipodi-0.dtd"
   xmlns:inkscape="http://www.inkscape.org/namespaces/inkscape"
   viewBox="0 0 78.739995 78.713564"
   version="1.1"
   id="svg38"
   sodipodi:docname="favicon.svg"
   width="78.739998"
   height="78.713562"
   inkscape:version="1.0.2 (e86c870879, 2021-01-15)">
  <metadata
     id="metadata44">
    <rdf:RDF>
      <cc:Work
         rdf:about="">
        <dc:format>image/svg+xml</dc:format>
        <dc:type
           rdf:resource="http://purl.org/dc/dcmitype/StillImage" />
        <dc:title></dc:title>
      </cc:Work>
    </rdf:RDF>
  </metadata>
  <defs
     id="defs42" />
  <sodipodi:namedview
     pagecolor="#ffffff"
     bordercolor="#666666"
     borderopacity="1"
     objecttolerance="10"
     gridtolerance="10"
     guidetolerance="10"
     inkscape:pageopacity="0"
     inkscape:pageshadow="2"
     inkscape:window-width="1920"
     inkscape:window-height="1006"
     id="namedview40"
     showgrid="false"
     fit-margin-top="0"
     fit-margin-left="0"
     fit-margin-right="0"
     fit-margin-bottom="0"
     inkscape:zoom="4.0165189"
     inkscape:cx="148.13823"
     inkscape:cy="40.374999"
     inkscape:window-x="1080"
     inkscape:window-y="1080"
     inkscape:window-maximized="1"
     inkscape:current-layer="Layer_1-2" />
  <g
     id="Layer_2"
     data-name="Layer 2"
     transform="translate(0,-0.03)">
    <g
       id="Layer_1-2"
       data-name="Layer 1">
      <g
         id="g50"
         transform="matrix(0.88900178,0,0,0.88900178,4.3699989,4.3718624)"
         style="fill:#133ff0;fill-opacity:1">
        <path
           d="M 77.69,48.46 H 1.06 a 39.38,39.38 0 0 0 76.63,0 z"
           fill="#ffffff"
           id="path32"
           style="fill:#133ff0;fill-opacity:1" />
        <path
           d="m 0,42.4 v -3 a 39.37,39.37 0 0 1 78.74,0 v 3 H 60.57 v -3 a 21.2,21.2 0 0 0 -42.18,-3 h 6.14 a 15.14,15.14 0 0 1 30,3 v 3 h -6 v -3 a 9.09,9.09 0 0 0 -18.18,0 v 3 H 12.11 v -3 a 27.26,27.26 0 0 1 54.35,-3 h 6.09 a 33.31,33.31 0 0 0 -66.49,3 v 3 z"
           fill="#ffffff"
           id="path34"
           style="fill:#133ff0;fill-opacity:1" />
      </g>
    </g>
  </g>
</svg>
